<?xml version="1.0" encoding="UTF-8" standalone="no"?>
<!-- Generator: Adobe Illustrator 19.0.0, SVG Export Plug-In . SVG Version: 6.00 Build 0)  -->

<svg
   xmlns:dc="http://purl.org/dc/elements/1.1/"
   xmlns:cc="http://creativecommons.org/ns#"
   xmlns:rdf="http://www.w3.org/1999/02/22-rdf-syntax-ns#"
   xmlns:svg="http://www.w3.org/2000/svg"
   xmlns="http://www.w3.org/2000/svg"
   xmlns:sodipodi="http://sodipodi.sourceforge.net/DTD/sodipodi-0.dtd"
   xmlns:inkscape="http://www.inkscape.org/namespaces/inkscape"
   version="1.1"
   id="Layer_1"
   x="0px"
   y="0px"
   viewBox="0 0 330 330"
   style="enable-background:new 0 0 330 330;"
   xml:space="preserve"
   sodipodi:docname="nana.svg"
   inkscape:version="0.92.4 5da689c313, 2019-01-14"><metadata
   id="metadata4820"><rdf:RDF><cc:Work
       rdf:about=""><dc:format>image/svg+xml</dc:format><dc:type
         rdf:resource="http://purl.org/dc/dcmitype/StillImage" /><dc:title></dc:title></cc:Work></rdf:RDF></metadata><defs
   id="defs4818" /><sodipodi:namedview
   pagecolor="#ffffff"
   bordercolor="#666666"
   borderopacity="1"
   objecttolerance="10"
   gridtolerance="10"
   guidetolerance="10"
   inkscape:pageopacity="0"
   inkscape:pageshadow="2"
   inkscape:window-width="1920"
   inkscape:window-height="1048"
   id="namedview4816"
   showgrid="false"
   inkscape:zoom="2.4909091"
   inkscape:cx="165"
   inkscape:cy="165"
   inkscape:window-x="0"
   inkscape:window-y="32"
   inkscape:window-maximized="1"
   inkscape:current-layer="Layer_1" />
<g
   id="XMLID_487_"
   transform="matrix(1,0,0,0.81021898,0,28.102189)"
   style="fill:#ffffff">
	<path
   id="XMLID_488_"
   d="m 230,0 c -8.284,0 -15,6.716 -15,15 v 300 c 0,8.284 6.716,15 15,15 8.284,0 15,-6.716 15,-15 V 15 C 245,6.716 238.284,0 230,0 Z"
   inkscape:connector-curvature="0"
   style="fill:#ffffff" />
	<path
   id="XMLID_489_"
   d="M 100,0 C 91.716,0 85,6.716 85,15 v 300 c 0,8.284 6.716,15 15,15 8.284,0 15,-6.716 15,-15 V 15 C 115,6.716 108.284,0 100,0 Z"
   inkscape:connector-curvature="0"
   style="fill:#ffffff" />
</g>
<g
   id="g4785"
   transform="matrix(1,0,0,0.81021898,0,28.102189)"
   style="fill:#ffffff">
</g>
<g
   id="g4787"
   transform="matrix(1,0,0,0.81021898,0,28.102189)"
   style="fill:#ffffff">
</g>
<g
   id="g4789"
   transform="matrix(1,0,0,0.81021898,0,28.102189)"
   style="fill:#ffffff">
</g>
<g
   id="g4791"
   transform="matrix(1,0,0,0.81021898,0,28.102189)"
   style="fill:#ffffff">
</g>
<g
   id="g4793"
   transform="matrix(1,0,0,0.81021898,0,28.102189)"
   style="fill:#ffffff">
</g>
<g
   id="g4795"
   transform="matrix(1,0,0,0.81021898,0,28.102189)"
   style="fill:#ffffff">
</g>
<g
   id="g4797"
   transform="matrix(1,0,0,0.81021898,0,28.102189)"
   style="fill:#ffffff">
</g>
<g
   id="g4799"
   transform="matrix(1,0,0,0.81021898,0,28.102189)"
   style="fill:#ffffff">
</g>
<g
   id="g4801"
   transform="matrix(1,0,0,0.81021898,0,28.102189)"
   style="fill:#ffffff">
</g>
<g
   id="g4803"
   transform="matrix(1,0,0,0.81021898,0,28.102189)"
   style="fill:#ffffff">
</g>
<g
   id="g4805"
   transform="matrix(1,0,0,0.81021898,0,28.102189)"
   style="fill:#ffffff">
</g>
<g
   id="g4807"
   transform="matrix(1,0,0,0.81021898,0,28.102189)"
   style="fill:#ffffff">
</g>
<g
   id="g4809"
   transform="matrix(1,0,0,0.81021898,0,28.102189)"
   style="fill:#ffffff">
</g>
<g
   id="g4811"
   transform="matrix(1,0,0,0.81021898,0,28.102189)"
   style="fill:#ffffff">
</g>
<g
   id="g4813"
   transform="matrix(1,0,0,0.81021898,0,28.102189)"
   style="fill:#ffffff">
</g>
</svg>